<?xml version="1.0" encoding="UTF-8" standalone="no"?>
<!-- Created with Inkscape (http://www.inkscape.org/) -->
<svg
   xmlns:dc="http://purl.org/dc/elements/1.1/"
   xmlns:cc="http://creativecommons.org/ns#"
   xmlns:rdf="http://www.w3.org/1999/02/22-rdf-syntax-ns#"
   xmlns:svg="http://www.w3.org/2000/svg"
   xmlns="http://www.w3.org/2000/svg"
   xmlns:sodipodi="http://sodipodi.sourceforge.net/DTD/sodipodi-0.dtd"
   xmlns:inkscape="http://www.inkscape.org/namespaces/inkscape"
   width="300"
   height="300"
   id="svg2"
   sodipodi:version="0.32"
   inkscape:version="0.46"
   version="1.0"
   sodipodi:docname="drawing-2.svg"
   inkscape:output_extension="org.inkscape.output.svg.inkscape"
   inkscape:export-filename="/home/yug/Desktop/Al logo test-2.png"
   inkscape:export-xdpi="90"
   inkscape:export-ydpi="90">
  <defs
     id="defs4">
    <inkscape:perspective
       sodipodi:type="inkscape:persp3d"
       inkscape:vp_x="0 : 526.18109 : 1"
       inkscape:vp_y="0 : 1000 : 0"
       inkscape:vp_z="744.09448 : 526.18109 : 1"
       inkscape:persp3d-origin="372.04724 : 350.78739 : 1"
       id="perspective10" />
    <inkscape:perspective
       id="perspective9"
       inkscape:persp3d-origin="372.04724 : 350.78739 : 1"
       inkscape:vp_z="744.09448 : 526.18109 : 1"
       inkscape:vp_y="0 : 1000 : 0"
       inkscape:vp_x="0 : 526.18109 : 1"
       sodipodi:type="inkscape:persp3d" />
    <filter
       inkscape:collect="always"
       id="filter3242"
       x="-0.12"
       width="1.24"
       y="-0.12"
       height="1.24">
      <feGaussianBlur
         inkscape:collect="always"
         stdDeviation="14.935611"
         id="feGaussianBlur3244" />
    </filter>
    <filter
       inkscape:collect="always"
       id="filter3306">
      <feGaussianBlur
         inkscape:collect="always"
         stdDeviation="2.655593"
         id="feGaussianBlur3308" />
    </filter>
    <filter
       inkscape:collect="always"
       id="filter3334">
      <feGaussianBlur
         inkscape:collect="always"
         stdDeviation="1.4935611"
         id="feGaussianBlur3336" />
    </filter>
  </defs>
  <sodipodi:namedview
     id="base"
     pagecolor="#ffffff"
     bordercolor="#666666"
     borderopacity="1.0"
     gridtolerance="10000"
     guidetolerance="10"
     objecttolerance="10"
     inkscape:pageopacity="0.0"
     inkscape:pageshadow="2"
     inkscape:zoom="1.2168348"
     inkscape:cx="69.061494"
     inkscape:cy="121.49174"
     inkscape:document-units="px"
     inkscape:current-layer="g4323"
     showgrid="false"
     inkscape:window-width="1272"
     inkscape:window-height="727"
     inkscape:window-x="0"
     inkscape:window-y="0" />
  <metadata
     id="metadata7">
    <rdf:RDF>
      <cc:Work
         rdf:about="">
        <dc:format>image/svg+xml</dc:format>
        <dc:type
           rdf:resource="http://purl.org/dc/dcmitype/StillImage" />
      </cc:Work>
    </rdf:RDF>
  </metadata>
  <g
     inkscape:label="Layer 1"
     inkscape:groupmode="layer"
     id="layer1">
    <g
       id="g4323">
      <path
         style="font-size:177.3653717px;font-style:italic;font-variant:normal;font-weight:bold;font-stretch:normal;text-align:start;line-height:100%;writing-mode:lr-tb;text-anchor:start;fill:#000000;fill-opacity:1;stroke:none;stroke-width:1px;stroke-linecap:butt;stroke-linejoin:miter;stroke-opacity:1;display:inline;font-family:Times New Roman;-inkscape-font-specification:Times New Roman Bold Italic"
         d="M 399.05514,38.812616 C 404.26735,56.491775 417.83754,31.331332 419.35009,66.20357 L 419.35009,177.71439 C 419.35009,196.29958 416.5975,199.5286 399.05514,200.28207 L 399.05514,205.0611 L 469.65922,205.0611 C 486.14483,205.0611 501.16293,199.79413 508.98301,191.25499 C 516.59176,183.21818 520.82483,171.93676 520.82483,159.88151 C 520.82482,148.83088 517.02451,138.75617 510.47255,131.4728 C 504.13194,124.69172 498.4043,121.68511 484.66631,117.66669 C 495.65671,114.40174 500.11221,111.87829 505.18469,106.60412 C 510.46852,101.07879 513.63782,91.811367 513.63782,81.514194 C 513.6378,53.385268 494.82845,38.812616 458.26426,38.812616 L 399.05514,38.812616 z M 445.56595,48.105185 L 454.87556,48.105185 C 479.18124,48.105186 492.07676,60.135257 492.07676,82.487696 C 492.07676,102.07746 480.84991,113.15317 460.98267,113.15317 L 440.91115,113.15317 L 440.91115,55.627741 C 440.91116,50.353574 442.39564,48.105185 445.56595,48.105185 z M 440.91115,123.19799 C 461.41246,123.19799 471.13666,124.43101 478.7454,128.19827 C 490.79255,134.22591 496.50813,144.28025 496.50813,160.10276 C 496.50813,173.66491 492.07777,183.48726 483.62364,189.26373 C 476.86031,193.78444 468.19185,195.76853 454.24251,195.76853 C 443.88617,195.76853 440.91115,193.49504 440.91115,185.4582 L 440.91115,123.19799 z"
         id="path4330"
         sodipodi:nodetypes="cccccccscccsccccsccccccscscc" />
      <g
         id="g3285"
         transform="translate(0,-3.422859)">
        <path
           transform="matrix(0.9896626,0,0,0.9896626,392.22013,103.39719)"
           d="M -118.54507,50.125568 A 124.35611,124.35611 0 1 1 -367.25729,50.125568 A 124.35611,124.35611 0 1 1 -118.54507,50.125568 z"
           sodipodi:ry="124.35611"
           sodipodi:rx="124.35611"
           sodipodi:cy="50.125568"
           sodipodi:cx="-242.90118"
           id="path2458"
           style="fill:#ec4ebc;fill-opacity:0.72511848;stroke:none;stroke-width:50;stroke-miterlimit:4;stroke-dasharray:none;stroke-dashoffset:0;stroke-opacity:1"
           sodipodi:type="arc" />
        <path
           transform="matrix(1.3424136,0,0,1.3424136,460.27508,66.446773)"
           d="M -192.9263,46.057846 A 58.691437,58.691437 0 1 1 -310.30917,46.057846 A 58.691437,58.691437 0 1 1 -192.9263,46.057846 z"
           sodipodi:ry="58.691437"
           sodipodi:rx="58.691437"
           sodipodi:cy="46.057846"
           sodipodi:cx="-251.61774"
           id="path2460"
           style="opacity:0.3;fill:#ffff99;fill-opacity:1;stroke:none;stroke-width:50;stroke-miterlimit:4;stroke-dasharray:none;stroke-dashoffset:0;stroke-opacity:1"
           sodipodi:type="arc" />
        <path
           sodipodi:type="arc"
           style="opacity:0.3;fill:#eeeeee;fill-opacity:1;stroke:none;stroke-width:50;stroke-miterlimit:4;stroke-dasharray:none;stroke-dashoffset:0;stroke-opacity:1"
           id="path2462"
           sodipodi:cx="-251.61774"
           sodipodi:cy="46.057846"
           sodipodi:rx="58.691437"
           sodipodi:ry="58.691437"
           d="M -192.9263,46.057846 A 58.691437,58.691437 0 1 1 -310.30917,46.057846 A 58.691437,58.691437 0 1 1 -192.9263,46.057846 z"
           transform="matrix(0.5193278,0,0,0.5193278,204.86404,56.048245)" />
        <path
           transform="matrix(0.8622802,0,0,0.8498734,437.80648,52.172873)"
           d="M -192.9263,46.057846 A 58.691437,58.691437 0 1 1 -310.30917,46.057846 A 58.691437,58.691437 0 1 1 -192.9263,46.057846 z"
           sodipodi:ry="58.691437"
           sodipodi:rx="58.691437"
           sodipodi:cy="46.057846"
           sodipodi:cx="-251.61774"
           id="path2464"
           style="opacity:0.3;fill:#eeeeee;fill-opacity:1;stroke:none;stroke-width:50;stroke-miterlimit:4;stroke-dasharray:none;stroke-dashoffset:0;stroke-opacity:1"
           sodipodi:type="arc" />
        <path
           sodipodi:type="arc"
           style="opacity:0.3;fill:#eeeeee;fill-opacity:1;stroke:none;stroke-width:50;stroke-miterlimit:4;stroke-dasharray:none;stroke-dashoffset:0;stroke-opacity:1"
           id="path2466"
           sodipodi:cx="-251.61774"
           sodipodi:cy="46.057846"
           sodipodi:rx="58.691437"
           sodipodi:ry="58.691437"
           d="M -192.9263,46.057846 A 58.691437,58.691437 0 1 1 -310.30917,46.057846 A 58.691437,58.691437 0 1 1 -192.9263,46.057846 z"
           transform="matrix(0.5193278,0,0,0.5118555,371.64194,47.902494)" />
        <path
           transform="matrix(0.8531276,0,0,0.8531276,360.20578,109.0909)"
           sodipodi:type="arc"
           style="opacity:0.4;fill:#ffffff;fill-opacity:1;stroke:#aaccee;stroke-width:50;stroke-miterlimit:4;stroke-dasharray:none;stroke-dashoffset:0;stroke-opacity:1;filter:url(#filter3242)"
           id="path2470"
           sodipodi:cx="-242.90118"
           sodipodi:cy="50.125568"
           sodipodi:rx="124.35611"
           sodipodi:ry="124.35611"
           d="M -118.54507,50.125568 A 124.35611,124.35611 0 1 1 -367.25729,50.125568 A 124.35611,124.35611 0 1 1 -118.54507,50.125568 z" />
        <path
           transform="matrix(0.3588836,0,0,0.3588836,155.07671,54.021257)"
           d="M -192.9263,46.057846 A 58.691437,58.691437 0 1 1 -310.30917,46.057846 A 58.691437,58.691437 0 1 1 -192.9263,46.057846 z"
           sodipodi:ry="58.691437"
           sodipodi:rx="58.691437"
           sodipodi:cy="46.057846"
           sodipodi:cx="-251.61774"
           id="path3255"
           style="opacity:0.6;fill:#eeeeee;fill-opacity:1;stroke:none;stroke-width:50;stroke-miterlimit:4;stroke-dasharray:none;stroke-dashoffset:0;stroke-opacity:1"
           sodipodi:type="arc" />
        <path
           sodipodi:type="arc"
           style="opacity:0.4;fill:#efffff;fill-opacity:1;stroke:none;stroke-width:50;stroke-miterlimit:4;stroke-dasharray:none;stroke-dashoffset:0;stroke-opacity:1"
           id="path3257"
           sodipodi:cx="-251.61774"
           sodipodi:cy="46.057846"
           sodipodi:rx="58.691437"
           sodipodi:ry="58.691437"
           d="M -192.9263,46.057846 A 58.691437,58.691437 0 1 1 -310.30917,46.057846 A 58.691437,58.691437 0 1 1 -192.9263,46.057846 z"
           transform="matrix(0.8402163,0,0,0.8580435,442.55033,200.53169)" />
        <path
           id="path2416"
           d="M 214.96561,37.812597 C 212.88582,37.813827 210.80393,37.862169 208.69185,37.953264 C 204.44978,38.136229 200.1085,38.490441 195.72233,39.022336 C 207.73504,43.632868 218.83273,50.083996 228.69474,58.012417 C 248.54159,60.428594 263.27254,68.362748 271.09185,80.884914 C 281.25196,97.155697 279.36447,120.51207 265.2401,146.52026 C 251.11572,172.52844 225.00621,199.96692 190.57391,221.46778 C 156.14161,242.96862 120.01547,254.3746 90.446951,255.64992 C 60.878422,256.92525 39.079191,248.37301 28.919089,232.10222 C 19.911865,217.67769 20.375216,197.68842 30.438295,175.21638 C 29.23593,168.31509 28.609621,161.21927 28.609621,153.97563 C 28.609621,148.71693 28.925049,143.53163 29.566158,138.44596 C 25.100538,144.63789 21.133361,150.90122 17.721975,157.18284 C 1.5795123,186.90711 -2.611517,218.23319 12.461019,242.37093 C 27.533555,266.50869 57.525796,276.49141 91.319088,275.03387 C 125.11238,273.57635 163.88953,261.00077 200.84262,237.92585 C 237.79569,214.85093 266.11836,185.50043 282.26083,155.77617 C 298.4033,126.0519 302.62246,94.72582 287.54992,70.58807 C 273.41942,47.958929 246.16259,37.794143 214.96561,37.812597 z"
           style="opacity:0.40000000000000002;fill:#ffff00;fill-opacity:1;stroke:none;stroke-width:15.82888411999999967;stroke-miterlimit:4;stroke-dashoffset:0;stroke-opacity:1;filter:url(#filter3306)" />
        <g
           id="g3280">
          <path
             style="font-size:177.3653717px;font-style:italic;font-variant:normal;font-weight:bold;font-stretch:normal;text-align:start;line-height:100%;writing-mode:lr-tb;text-anchor:start;fill:#ff509d;fill-opacity:1;stroke:none;stroke-width:1px;stroke-linecap:butt;stroke-linejoin:miter;stroke-opacity:1;display:inline;font-family:Times New Roman;-inkscape-font-specification:Times New Roman Bold Italic"
             d="M 130.1655,63.749133 C 88.539595,98.455121 73.703841,120.89548 59.010611,149.52447 C 44.317383,178.15346 44.167343,201.34678 47.107101,226.02051 C 58.561835,191.77213 62.990042,203.0035 72.68296,189.84128 C 83.446156,175.22568 58.59581,191.16891 59.594754,182.15918 C 60.721732,171.99463 67.267905,160.1492 74.664349,148.72081 C 92.3227,142.78527 102.78619,144.93839 116.00556,148.31269 L 116.00556,174.43167 C 116.00556,213.96663 123.76132,260.02879 150.10629,260.20674 L 150.10629,257.39393 C 140.10647,256.51676 132.82176,211.62647 131.70786,173.19527 L 131.16271,154.38687 C 146.15974,160.57528 166.74644,181.16612 155.8643,162.24349 C 151.49368,154.64359 144.12194,145.52407 130.90415,139.34383 L 130.1655,63.749133 z M 116.00556,92.891 L 116.00556,134.59302 C 103.99891,133.00473 92.316905,134.61055 79.334912,139.84962 C 92.844678,114.92519 102.84151,104.69286 116.00556,92.891 z"
             id="path4334"
             sodipodi:nodetypes="cscssccsccscscccccc" />
          <path
             style="fill:#339900"
             d="M 152.68091,205.77372 C 159.43268,191.57118 166.90089,170.96062 171.26052,147.05778 C 175.4435,119.89541 178.52463,87.061793 171.08709,76.670151 C 165.42602,68.760526 157.44805,66.14179 149.69981,69.948313 C 143.50461,72.991868 148.32913,68.04382 155.21493,85.269138 C 156.65662,88.875595 155.07816,121.93985 152.58647,137.79546 C 146.56476,176.11392 126.98687,222.87888 116.87279,224.10531 C 110.35437,224.89572 108.63937,216.13523 109.64302,224.89984 C 112.12999,233.58165 115.82386,246.155 126.1377,242.08288 C 142.75332,235.5227 149.72891,206.31203 152.68091,205.77372 z"
             id="path2384"
             sodipodi:nodetypes="ccssssscsc" />
          <path
             style="fill:#336699"
             d="M 210.25642,176.34917 C 193.88132,201.33032 157.0098,223.2894 134.34562,207.98525 C 108.09479,190.25918 112.57047,193.39231 131.91907,217.77404 C 146.85845,236.59956 202.49397,231.81772 230.78851,188.50579 C 247.21602,163.35933 250.03498,142.41395 243.61147,129.80099 C 237.18796,117.18803 223.67483,112.69504 217.47289,112.82947 C 213.71709,112.91089 211.958,112.10107 211.91836,110.27236 C 211.81943,105.70856 229.64416,72.892153 235.05948,66.947659 C 239.34237,62.246228 239.98358,60.399942 238.89407,55.906488 C 237.39126,49.708552 226.40715,40.186978 220.89779,40.306407 C 187.55073,50.88789 159.31666,63.242066 131.42853,83.928906 C 123.30483,89.592012 113.88142,99.766356 113.29119,100.76935 C 110.63592,105.28149 114.92901,103.58159 126.04952,97.061971 C 134.14634,92.315061 160.04949,79.054616 166.88489,74.839299 C 190.56231,65.32709 197.75565,61.648786 211.74124,59.149311 C 213.73936,61.062667 187.3757,107.34279 181.3435,117.70807 C 177.24214,124.75557 177.36882,128.44463 181.95854,135.6182 C 185.64399,141.37845 196.71699,132.86076 207.82724,131.42677 C 240.64088,133.42319 219.95675,160.23514 210.25642,176.34917 z"
             id="path2432"
             sodipodi:nodetypes="cssszssssccssccsscc" />
        </g>
        <path
           transform="matrix(0.2449659,0,0,0.2414413,286.50493,76.228192)"
           d="M -192.9263,46.057846 A 58.691437,58.691437 0 1 1 -310.30917,46.057846 A 58.691437,58.691437 0 1 1 -192.9263,46.057846 z"
           sodipodi:ry="58.691437"
           sodipodi:rx="58.691437"
           sodipodi:cy="46.057846"
           sodipodi:cx="-251.61774"
           id="path2468"
           style="opacity:0.3;fill:#eeeeee;fill-opacity:1;stroke:none;stroke-width:50;stroke-miterlimit:4;stroke-dasharray:none;stroke-dashoffset:0;stroke-opacity:1"
           sodipodi:type="arc" />
        <path
           transform="matrix(0.3601556,0,0,0.3677972,293.58309,194.33812)"
           d="M -192.9263,46.057846 A 58.691437,58.691437 0 1 1 -310.30917,46.057846 A 58.691437,58.691437 0 1 1 -192.9263,46.057846 z"
           sodipodi:ry="58.691437"
           sodipodi:rx="58.691437"
           sodipodi:cy="46.057846"
           sodipodi:cx="-251.61774"
           id="path3259"
           style="opacity:0.4;fill:#efffff;fill-opacity:1;stroke:none;stroke-width:50;stroke-miterlimit:4;stroke-dasharray:none;stroke-dashoffset:0;stroke-opacity:1"
           sodipodi:type="arc" />
      </g>
    </g>
    <flowRoot
       xml:space="preserve"
       id="flowRoot4272"
       style="fill:black;stroke:none;stroke-opacity:1;stroke-width:1px;stroke-linejoin:miter;stroke-linecap:butt;fill-opacity:1;font-family:Bitstream Vera Sans;font-style:normal;font-weight:normal;font-size:24"><flowRegion
         id="flowRegion4274"><rect
           id="rect4276"
           width="111.42857"
           height="268.57144"
           x="480"
           y="-280" /></flowRegion><flowPara
         id="flowPara4278" /></flowRoot>  </g>
</svg>
